<svg xmlns="http://www.w3.org/2000/svg" viewBox="0 0 1200 760" role="img" aria-labelledby="title desc">
  <title id="title">Hand-finished brass lamp</title>
  <desc id="desc">A brass Kerala lamp with warm flame-like highlights and metal finish.</desc>
  <defs>
    <linearGradient id="bg" x1="0" x2="1" y1="0" y2="1">
      <stop offset="0" stop-color="#fff7ed"/>
      <stop offset="1" stop-color="#fef3c7"/>
    </linearGradient>
    <linearGradient id="brass" x1="0" x2="1" y1="0" y2="1">
      <stop offset="0" stop-color="#fde68a"/>
      <stop offset=".45" stop-color="#ca8a04"/>
      <stop offset="1" stop-color="#78350f"/>
    </linearGradient>
    <filter id="shadow" x="-20%" y="-20%" width="140%" height="140%">
      <feDropShadow dx="0" dy="18" stdDeviation="18" flood-color="#78350f" flood-opacity=".22"/>
    </filter>
  </defs>
  <rect width="1200" height="760" fill="url(#bg)"/>
  <g filter="url(#shadow)">
    <path d="M600 114c58 76 58 146 0 210-58-64-58-134 0-210Z" fill="#f97316"/>
    <path d="M600 174c25 43 25 81 0 116-25-35-25-73 0-116Z" fill="#fff7ed"/>
    <path d="M600 312v216" stroke="url(#brass)" stroke-width="70" stroke-linecap="round"/>
    <ellipse cx="600" cy="526" rx="254" ry="62" fill="url(#brass)"/>
    <ellipse cx="600" cy="526" rx="162" ry="34" fill="#fde68a" opacity=".7"/>
    <path d="M380 584h440l72 84H308Z" fill="url(#brass)"/>
    <path d="M468 380h264" stroke="#78350f" stroke-width="28" stroke-linecap="round"/>
    <path d="M378 486c55-66 109-66 164 0M658 486c55-66 109-66 164 0" fill="none" stroke="#78350f" stroke-width="24" stroke-linecap="round"/>
  </g>
</svg>
