<svg xmlns="http://www.w3.org/2000/svg" viewBox="0 0 1200 760" role="img" aria-labelledby="title desc">
  <title id="title">Kerala artisan workshop table</title>
  <desc id="desc">A warm artisan workbench with carving tools, woven cloth, brass objects, and craft sketches.</desc>
  <defs>
    <linearGradient id="bg" x1="0" x2="1" y1="0" y2="1">
      <stop offset="0" stop-color="#f8fafc"/>
      <stop offset=".5" stop-color="#e9f5ef"/>
      <stop offset="1" stop-color="#fef3c7"/>
    </linearGradient>
    <pattern id="grid" width="38" height="38" patternUnits="userSpaceOnUse">
      <path d="M38 0H0v38" fill="none" stroke="#0f766e" stroke-opacity=".12" stroke-width="2"/>
    </pattern>
    <filter id="shadow" x="-20%" y="-20%" width="140%" height="140%">
      <feDropShadow dx="0" dy="18" stdDeviation="18" flood-color="#0f172a" flood-opacity=".18"/>
    </filter>
  </defs>
  <rect width="1200" height="760" fill="url(#bg)"/>
  <rect width="1200" height="760" fill="url(#grid)"/>
  <path d="M0 515c185-58 306-24 454-58 190-44 292-154 482-125 102 15 183 64 264 118v310H0Z" fill="#0f766e" opacity=".12"/>
  <g filter="url(#shadow)">
    <rect x="104" y="230" width="992" height="356" rx="34" fill="#8b5e34"/>
    <rect x="104" y="230" width="992" height="64" rx="34" fill="#a47745"/>
    <rect x="154" y="330" width="268" height="178" rx="20" fill="#fff7ed"/>
    <path d="M185 378c46-22 91-22 136 0m-136 42c49-19 98-17 147 7m-147 43c31-12 64-14 98-6" fill="none" stroke="#b91c1c" stroke-width="12" stroke-linecap="round"/>
    <rect x="474" y="332" width="230" height="116" rx="18" fill="#fef3c7"/>
    <path d="M508 396h160M530 365h116M538 427h90" stroke="#ca8a04" stroke-width="14" stroke-linecap="round"/>
    <circle cx="835" cy="407" r="84" fill="#fde68a"/>
    <circle cx="835" cy="407" r="52" fill="none" stroke="#92400e" stroke-width="18"/>
    <path d="M837 333v148M762 407h148" stroke="#92400e" stroke-width="12" stroke-linecap="round"/>
    <path d="M890 276l112 112" stroke="#0f172a" stroke-width="20" stroke-linecap="round"/>
    <path d="M972 358l58 58" stroke="#b91c1c" stroke-width="30" stroke-linecap="round"/>
  </g>
</svg>
