<svg xmlns="http://www.w3.org/2000/svg" viewBox="0 0 1200 760" role="img" aria-labelledby="title desc">
  <title id="title">Kasavu loom artisan</title>
  <desc id="desc">A handloom with cream Kasavu fabric and gold border threads.</desc>
  <defs>
    <linearGradient id="bg" x1="0" x2="1" y1="0" y2="1">
      <stop offset="0" stop-color="#fff7ed"/>
      <stop offset=".65" stop-color="#fefce8"/>
      <stop offset="1" stop-color="#e0f2fe"/>
    </linearGradient>
    <filter id="shadow" x="-20%" y="-20%" width="140%" height="140%">
      <feDropShadow dx="0" dy="18" stdDeviation="18" flood-color="#0f172a" flood-opacity=".16"/>
    </filter>
  </defs>
  <rect width="1200" height="760" fill="url(#bg)"/>
  <g filter="url(#shadow)">
    <rect x="132" y="160" width="936" height="92" rx="22" fill="#7c4a20"/>
    <rect x="132" y="510" width="936" height="92" rx="22" fill="#7c4a20"/>
    <path d="M210 202v350M990 202v350" stroke="#451a03" stroke-width="36" stroke-linecap="round"/>
    <rect x="290" y="230" width="620" height="300" rx="18" fill="#fff7ed"/>
    <path d="M333 230v300M384 230v300M435 230v300M486 230v300M537 230v300M588 230v300M639 230v300M690 230v300M741 230v300M792 230v300M843 230v300" stroke="#d6d3d1" stroke-width="6"/>
    <path d="M290 286h620M290 352h620M290 418h620M290 484h620" stroke="#ca8a04" stroke-width="14"/>
    <path d="M760 236v288" stroke="#b91c1c" stroke-width="24"/>
    <circle cx="246" cy="388" r="56" fill="#fde68a" stroke="#ca8a04" stroke-width="18"/>
    <circle cx="954" cy="388" r="56" fill="#fde68a" stroke="#ca8a04" stroke-width="18"/>
  </g>
</svg>
