<svg xmlns="http://www.w3.org/2000/svg" viewBox="0 0 1200 760" role="img" aria-labelledby="title desc">
  <title id="title">Handwoven Kasavu saree</title>
  <desc id="desc">A folded cream Kasavu saree with a gold border and fine weave lines.</desc>
  <defs>
    <linearGradient id="bg" x1="0" x2="1" y1="0" y2="1">
      <stop offset="0" stop-color="#f8fafc"/>
      <stop offset="1" stop-color="#fef3c7"/>
    </linearGradient>
    <pattern id="weave" width="28" height="28" patternUnits="userSpaceOnUse">
      <path d="M0 14h28M14 0v28" stroke="#d6d3d1" stroke-width="2" opacity=".6"/>
    </pattern>
    <filter id="shadow" x="-20%" y="-20%" width="140%" height="140%">
      <feDropShadow dx="0" dy="18" stdDeviation="18" flood-color="#0f172a" flood-opacity=".14"/>
    </filter>
  </defs>
  <rect width="1200" height="760" fill="url(#bg)"/>
  <g filter="url(#shadow)">
    <path d="M260 146h540c96 0 164 66 164 158v310H260Z" fill="#fff7ed"/>
    <path d="M260 146h540c96 0 164 66 164 158v310H260Z" fill="url(#weave)" opacity=".9"/>
    <path d="M303 146h78v468h-78Z" fill="#ca8a04"/>
    <path d="M411 146h32v468h-32M806 154c66 20 102 72 102 150v310h-70V318c0-56-22-91-66-111Z" fill="#b91c1c" opacity=".88"/>
    <path d="M260 614h704" stroke="#ca8a04" stroke-width="40"/>
    <path d="M444 226h292M444 306h332M444 386h280M444 466h360" stroke="#d6d3d1" stroke-width="10" stroke-linecap="round"/>
  </g>
</svg>
