<svg xmlns="http://www.w3.org/2000/svg" viewBox="0 0 1200 760" role="img" aria-labelledby="title desc">
  <title id="title">Kerala mural panel</title>
  <desc id="desc">A framed Kerala mural panel with lotus and temple-inspired motifs.</desc>
  <defs>
    <linearGradient id="bg" x1="0" x2="1" y1="0" y2="1">
      <stop offset="0" stop-color="#ecfdf5"/>
      <stop offset="1" stop-color="#fee2e2"/>
    </linearGradient>
    <filter id="shadow" x="-20%" y="-20%" width="140%" height="140%">
      <feDropShadow dx="0" dy="18" stdDeviation="18" flood-color="#0f172a" flood-opacity=".16"/>
    </filter>
  </defs>
  <rect width="1200" height="760" fill="url(#bg)"/>
  <g filter="url(#shadow)">
    <rect x="150" y="96" width="900" height="568" rx="36" fill="#7c2d12"/>
    <rect x="210" y="156" width="780" height="448" rx="22" fill="#fef3c7"/>
    <circle cx="600" cy="380" r="172" fill="#0f766e"/>
    <path d="M600 214c110 110 110 220 0 332-110-112-110-222 0-332Z" fill="#b91c1c"/>
    <path d="M420 380c119-84 240-84 360 0-120 84-241 84-360 0Z" fill="#ca8a04"/>
    <circle cx="600" cy="380" r="62" fill="#fff7ed"/>
    <path d="M600 246v268M466 380h268" stroke="#fff7ed" stroke-width="18" stroke-linecap="round"/>
    <path d="M286 230h140M774 230h140M286 530h140M774 530h140" stroke="#b91c1c" stroke-width="18" stroke-linecap="round"/>
  </g>
</svg>
