<svg xmlns="http://www.w3.org/2000/svg" viewBox="0 0 1200 760" role="img" aria-labelledby="title desc">
  <title id="title">Mural workshop tile</title>
  <desc id="desc">A small mural workshop tile with brushes and pigment swatches.</desc>
  <defs>
    <linearGradient id="bg" x1="0" x2="1" y1="0" y2="1">
      <stop offset="0" stop-color="#fffbeb"/>
      <stop offset="1" stop-color="#e0f2fe"/>
    </linearGradient>
    <filter id="shadow" x="-20%" y="-20%" width="140%" height="140%">
      <feDropShadow dx="0" dy="18" stdDeviation="18" flood-color="#0f172a" flood-opacity=".15"/>
    </filter>
  </defs>
  <rect width="1200" height="760" fill="url(#bg)"/>
  <g filter="url(#shadow)">
    <rect x="230" y="118" width="516" height="516" rx="32" fill="#fff7ed"/>
    <rect x="290" y="178" width="396" height="396" rx="22" fill="#fef3c7"/>
    <path d="M488 222c106 104 106 206 0 306-106-100-106-202 0-306Z" fill="#0f766e"/>
    <path d="M386 376c68-54 136-54 204 0-68 54-136 54-204 0Z" fill="#b91c1c"/>
    <circle cx="488" cy="376" r="42" fill="#fde68a"/>
    <path d="M790 210l220 220M832 318l156 156" stroke="#0f172a" stroke-width="22" stroke-linecap="round"/>
    <path d="M972 392l58 58M950 436l58 58" stroke="#b91c1c" stroke-width="34" stroke-linecap="round"/>
    <circle cx="842" cy="566" r="56" fill="#0f766e"/>
    <circle cx="974" cy="566" r="56" fill="#ca8a04"/>
  </g>
</svg>
