<svg xmlns="http://www.w3.org/2000/svg" viewBox="0 0 1200 760" role="img" aria-labelledby="title desc">
  <title id="title">Kerala mural atelier</title>
  <desc id="desc">A mural painting studio with pigment bowls, brushes, and a Kerala mural panel.</desc>
  <defs>
    <linearGradient id="bg" x1="0" x2="1" y1="0" y2="1">
      <stop offset="0" stop-color="#fef2f2"/>
      <stop offset=".5" stop-color="#fef3c7"/>
      <stop offset="1" stop-color="#dcfce7"/>
    </linearGradient>
    <filter id="shadow" x="-20%" y="-20%" width="140%" height="140%">
      <feDropShadow dx="0" dy="18" stdDeviation="18" flood-color="#0f172a" flood-opacity=".16"/>
    </filter>
  </defs>
  <rect width="1200" height="760" fill="url(#bg)"/>
  <g filter="url(#shadow)">
    <rect x="162" y="112" width="612" height="500" rx="32" fill="#fff7ed"/>
    <rect x="214" y="164" width="508" height="396" rx="18" fill="#fef3c7"/>
    <circle cx="468" cy="362" r="118" fill="#0f766e" opacity=".9"/>
    <path d="M468 238c82 90 82 172 0 248-82-76-82-158 0-248Z" fill="#b91c1c"/>
    <path d="M366 362h204M468 260v204" stroke="#fde68a" stroke-width="16" stroke-linecap="round"/>
    <circle cx="906" cy="248" r="72" fill="#b91c1c"/>
    <circle cx="906" cy="420" r="72" fill="#0f766e"/>
    <circle cx="906" cy="590" r="72" fill="#ca8a04"/>
    <path d="M792 176l234 234M784 330l218 218" stroke="#0f172a" stroke-width="18" stroke-linecap="round"/>
  </g>
</svg>
