<svg xmlns="http://www.w3.org/2000/svg" viewBox="0 0 1200 760" role="img" aria-labelledby="title desc">
  <title id="title">Nilambur teak elephant</title>
  <desc id="desc">A polished wooden elephant craft piece on a Kerala craft display cloth.</desc>
  <defs>
    <linearGradient id="bg" x1="0" x2="1" y1="0" y2="1">
      <stop offset="0" stop-color="#ecfeff"/>
      <stop offset=".55" stop-color="#fef9c3"/>
      <stop offset="1" stop-color="#fef2f2"/>
    </linearGradient>
    <pattern id="cloth" width="62" height="62" patternUnits="userSpaceOnUse">
      <rect width="62" height="62" fill="#fff7ed"/>
      <path d="M0 0h62M0 31h62M0 62h62M0 0v62M31 0v62M62 0v62" stroke="#b91c1c" stroke-opacity=".22" stroke-width="4"/>
    </pattern>
    <filter id="shadow" x="-20%" y="-20%" width="140%" height="140%">
      <feDropShadow dx="0" dy="18" stdDeviation="18" flood-color="#422006" flood-opacity=".22"/>
    </filter>
  </defs>
  <rect width="1200" height="760" fill="url(#bg)"/>
  <rect x="110" y="116" width="980" height="528" rx="36" fill="url(#cloth)" filter="url(#shadow)"/>
  <g filter="url(#shadow)">
    <path d="M336 389c40-141 180-218 320-169 112 39 193 137 193 254H292c-12-31 2-60 44-85Z" fill="#8b5e34"/>
    <circle cx="810" cy="321" r="78" fill="#8b5e34"/>
    <path d="M858 340c85 23 112 84 70 142-28 39-77 39-94 7 53-24 54-63 24-149Z" fill="#7c4a20"/>
    <path d="M842 302c29-31 68-36 116-16" fill="none" stroke="#8b5e34" stroke-width="34" stroke-linecap="round"/>
    <path d="M414 474v95M560 474v95M721 474v95" stroke="#451a03" stroke-width="42" stroke-linecap="round"/>
    <circle cx="833" cy="309" r="11" fill="#fef3c7"/>
    <path d="M382 323c95-52 196-52 303 0M392 386c100-40 206-40 318 0" fill="none" stroke="#fde68a" stroke-width="15" stroke-linecap="round" opacity=".9"/>
  </g>
</svg>
