<svg xmlns="http://www.w3.org/2000/svg" viewBox="0 0 1200 760" role="img" aria-labelledby="title desc">
  <title id="title">Custom temple wood panel</title>
  <desc id="desc">A carved wooden temple panel with layered Kerala architectural motifs.</desc>
  <defs>
    <linearGradient id="bg" x1="0" x2="1" y1="0" y2="1">
      <stop offset="0" stop-color="#fef3c7"/>
      <stop offset="1" stop-color="#fee2e2"/>
    </linearGradient>
    <filter id="shadow" x="-20%" y="-20%" width="140%" height="140%">
      <feDropShadow dx="0" dy="18" stdDeviation="18" flood-color="#422006" flood-opacity=".25"/>
    </filter>
  </defs>
  <rect width="1200" height="760" fill="url(#bg)"/>
  <g filter="url(#shadow)">
    <rect x="168" y="106" width="864" height="548" rx="36" fill="#7c2d12"/>
    <rect x="218" y="156" width="764" height="448" rx="22" fill="#92400e"/>
    <path d="M278 504h644M302 458h596M332 414h536" stroke="#fde68a" stroke-width="20" stroke-linecap="round"/>
    <path d="M600 198 358 392h484Z" fill="#451a03"/>
    <path d="M600 247 440 376h320Z" fill="#a16207"/>
    <circle cx="600" cy="402" r="84" fill="#7c2d12" stroke="#fde68a" stroke-width="18"/>
    <path d="M600 333v138M531 402h138" stroke="#fde68a" stroke-width="16" stroke-linecap="round"/>
    <path d="M290 220h120M790 220h120M290 554h120M790 554h120" stroke="#fef3c7" stroke-width="24" stroke-linecap="round"/>
  </g>
</svg>
